<mxfile host="Electron" modified="2024-05-19T07:53:48.008Z" agent="Mozilla/5.0 (Macintosh; Intel Mac OS X 10_15_7) AppleWebKit/537.36 (KHTML, like Gecko) draw.io/24.4.0 Chrome/120.0.6099.109 Electron/28.1.0 Safari/537.36" etag="xHbCW77o4RZYgcdNPCE6" version="24.4.0" type="device">
  <diagram name="페이지-1" id="eISn8is2ZOIMRA03fFG-">
    <mxGraphModel dx="1114" dy="894" grid="1" gridSize="10" guides="1" tooltips="1" connect="1" arrows="1" fold="1" page="1" pageScale="1" pageWidth="827" pageHeight="1169" math="0" shadow="0">
      <root>
        <mxCell id="0" />
        <mxCell id="1" parent="0" />
        <mxCell id="pB6WOfK1OlIF3hq6NBpv-13" value="com.assu.study" style="rounded=1;whiteSpace=wrap;html=1;verticalAlign=top;fontStyle=1;fillColor=#f5f5f5;fontColor=#333333;strokeColor=#666666;" vertex="1" parent="1">
          <mxGeometry x="34" y="30" width="380" height="265" as="geometry" />
        </mxCell>
        <mxCell id="pB6WOfK1OlIF3hq6NBpv-9" style="edgeStyle=orthogonalEdgeStyle;rounded=0;orthogonalLoop=1;jettySize=auto;html=1;entryX=0.5;entryY=0;entryDx=0;entryDy=0;dashed=1;endArrow=open;endFill=0;" edge="1" parent="1" source="pB6WOfK1OlIF3hq6NBpv-5" target="pB6WOfK1OlIF3hq6NBpv-6">
          <mxGeometry relative="1" as="geometry" />
        </mxCell>
        <mxCell id="pB6WOfK1OlIF3hq6NBpv-5" value="ui (표현 영역)&lt;br&gt;&lt;i&gt;(Controller..)&lt;/i&gt;" style="rounded=0;whiteSpace=wrap;html=1;" vertex="1" parent="1">
          <mxGeometry x="80" y="70" width="130" height="50" as="geometry" />
        </mxCell>
        <mxCell id="pB6WOfK1OlIF3hq6NBpv-10" style="edgeStyle=orthogonalEdgeStyle;rounded=0;orthogonalLoop=1;jettySize=auto;html=1;entryX=0.5;entryY=0;entryDx=0;entryDy=0;dashed=1;endArrow=open;endFill=0;" edge="1" parent="1" source="pB6WOfK1OlIF3hq6NBpv-6" target="pB6WOfK1OlIF3hq6NBpv-7">
          <mxGeometry relative="1" as="geometry" />
        </mxCell>
        <mxCell id="pB6WOfK1OlIF3hq6NBpv-6" value="application (응용 영역)&lt;div&gt;&lt;i&gt;(Service..)&lt;/i&gt;&lt;/div&gt;" style="rounded=0;whiteSpace=wrap;html=1;" vertex="1" parent="1">
          <mxGeometry x="80" y="150" width="130" height="50" as="geometry" />
        </mxCell>
        <mxCell id="pB6WOfK1OlIF3hq6NBpv-7" value="domain" style="rounded=0;whiteSpace=wrap;html=1;" vertex="1" parent="1">
          <mxGeometry x="80" y="220" width="130" height="50" as="geometry" />
        </mxCell>
        <mxCell id="pB6WOfK1OlIF3hq6NBpv-11" style="edgeStyle=orthogonalEdgeStyle;rounded=0;orthogonalLoop=1;jettySize=auto;html=1;entryX=1;entryY=0.5;entryDx=0;entryDy=0;dashed=1;endArrow=block;endFill=0;" edge="1" parent="1" source="pB6WOfK1OlIF3hq6NBpv-8" target="pB6WOfK1OlIF3hq6NBpv-7">
          <mxGeometry relative="1" as="geometry" />
        </mxCell>
        <mxCell id="pB6WOfK1OlIF3hq6NBpv-8" value="infrastructure" style="rounded=0;whiteSpace=wrap;html=1;" vertex="1" parent="1">
          <mxGeometry x="260" y="220" width="130" height="50" as="geometry" />
        </mxCell>
      </root>
    </mxGraphModel>
  </diagram>
</mxfile>
